# xmcd
#
# Track frame offsets: 
#        150
#        17995
#        34972
#        54837
#        79222
#        92185
#        106237
#        120225
#        145605
#        158015
#        175025
#        196890
#        214487
#        231672
#
# Disc length: 3413 seconds
#
# Revision: 4
# Processed by: cddbd v1.5.2PL0 Copyright (c) Steve Scherf et al.
# Submitted via: ExactAudioCopyFreeDBPlugin 1.0
#
DISCID=b80d530e
DTITLE=Johnny Heartsman - The Touch
DYEAR=1991
DGENRE=Blues
TTITLE0=Serpent's Touch
TTITLE1=Paint My Mailbox Blue
TTITLE2=You're So Fine
TTITLE3=Tongue
TTITLE4=Attitude
TTITLE5=Got To Find My Baby
TTITLE6=The Butler Did It
TTITLE7=Please Don't Be Scared Of My Love
TTITLE8=Oops
TTITLE9=Walkin' Blues
TTITLE10=Let Me Love You, Baby
TTITLE11=Heartburn
TTITLE12=Endless
TTITLE13=Tongue (unexpurgated version)
EXTD=YEAR: 1991
EXTT0=
EXTT1=
EXTT2=
EXTT3=
EXTT4=
EXTT5=
EXTT6=
EXTT7=
EXTT8=
EXTT9=
EXTT10=
EXTT11=
EXTT12=
EXTT13=
PLAYORDER=
